<svg width="221" height="228" viewBox="0 0 221 228" fill="none" xmlns="http://www.w3.org/2000/svg">
<path opacity="0.06" d="M23.1835 99.4558C23.1835 99.4558 61.9544 97.9032 70.3329 34.1721C77.7732 -22.4273 143.151 3.3347 162.049 25.8965C186.53 55.1235 173.48 105.4 205.15 111.751C236.819 118.103 216.138 188.719 168.066 181.96C108.266 173.552 122.734 208.496 104.783 223.286C91.899 233.901 39.0719 223.683 37.3112 185.149C35.8296 152.724 22.1519 152.826 12.457 149.15C-1.52521 143.847 -10.3355 105.444 23.1835 99.4558Z" fill="#66D0A4"/>
<path d="M154.983 170.233L116.891 132.594L109.349 140.227L147.44 177.866L154.983 170.233Z" fill="#4A94E4"/>
<path d="M169.534 180.347L139.899 151.064C139.734 150.9 139.468 150.902 139.305 151.067L128.088 162.418C127.925 162.583 127.927 162.849 128.092 163.012L157.727 192.296C157.892 192.459 158.158 192.457 158.321 192.292L169.537 180.941C169.7 180.776 169.699 180.51 169.534 180.347Z" fill="#66D1A3"/>
<path d="M83.1311 151.524C109.337 151.524 130.581 130.28 130.581 104.074C130.581 77.8686 109.337 56.6248 83.1311 56.6248C56.9255 56.6248 35.6816 77.8686 35.6816 104.074C35.6816 130.28 56.9255 151.524 83.1311 151.524Z" fill="#66D1A3"/>
<path d="M83.1312 143.782C105.061 143.782 122.838 126.004 122.838 104.074C122.838 82.1447 105.061 64.3672 83.1312 64.3672C61.2015 64.3672 43.424 82.1447 43.424 104.074C43.424 126.004 61.2015 143.782 83.1312 143.782Z" fill="#F6F5FF"/>
<path d="M163.35 61.1796C152.22 57.5719 140.192 63.6736 136.57 74.8493C132.962 85.9793 139.064 98.0074 150.239 101.63C161.415 105.252 173.412 99.0905 177.02 87.9599C180.629 76.8294 174.481 64.7871 163.35 61.1796ZM159.992 71.541C161.238 71.9448 162.335 72.7096 163.146 73.7382C163.956 74.7668 164.443 76.013 164.545 77.3187C164.646 78.6244 164.357 79.9308 163.715 81.0722C163.073 82.2135 162.106 83.1384 160.937 83.7296C159.769 84.3208 158.451 84.5516 157.151 84.3927C155.851 84.2339 154.628 83.6925 153.636 82.8373C152.644 81.9821 151.928 80.8516 151.58 79.5892C151.232 78.3268 151.266 76.9893 151.679 75.7465C152.793 72.3078 156.552 70.4265 159.992 71.541ZM151.589 97.467C147.891 96.2746 144.723 93.8337 142.627 90.5624C146.549 88.3337 150.65 87.713 154.36 88.9156C158.071 90.1182 161.088 92.9959 162.897 97.1323C159.28 98.5522 155.283 98.6705 151.589 97.467Z" fill="#4A94E4"/>
<path d="M70.7116 162.603C68.7783 163.59 67.1811 165.127 66.122 167.022C65.0628 168.916 64.5892 171.083 64.761 173.246C64.9329 175.41 65.7425 177.474 67.0875 179.178C68.4325 180.881 70.2524 182.148 72.3172 182.817C74.382 183.486 76.5988 183.528 78.6874 182.937C80.776 182.347 82.6426 181.15 84.051 179.498C85.4594 177.847 86.3465 175.815 86.6 173.659C86.8536 171.504 86.4622 169.321 85.4754 167.388C84.1498 164.798 81.8509 162.839 79.083 161.942C76.3152 161.045 73.3045 161.283 70.7116 162.603ZM73.2677 167.61C73.8698 167.303 74.5497 167.181 75.221 167.261C75.8923 167.34 76.5249 167.618 77.0385 168.057C77.5521 168.497 77.9235 169.079 78.1057 169.73C78.2879 170.381 78.2727 171.071 78.0619 171.714C77.8511 172.356 77.4542 172.921 76.9217 173.338C76.3892 173.754 75.745 174.003 75.0708 174.053C74.3966 174.103 73.7228 173.951 73.1349 173.618C72.5469 173.284 72.0713 172.783 71.7684 172.179C71.367 171.373 71.2992 170.442 71.5799 169.586C71.8605 168.731 72.467 168.021 73.2677 167.61V167.61ZM79.6633 180.14C77.8785 181.055 75.8312 181.32 73.8722 180.891C74.4903 178.646 75.7607 176.923 77.5542 176.007C79.3477 175.092 81.4988 175.041 83.669 175.891C82.867 177.729 81.451 179.231 79.6633 180.14V180.14Z" fill="#4A94E4"/>
</svg>
