<svg width="20" height="20" viewBox="0 0 20 20" fill="none" xmlns="http://www.w3.org/2000/svg">
<path d="M7.58301 13.333C7.58301 13.311 7.57412 13.29 7.55859 13.2744C7.54304 13.2589 7.52198 13.2501 7.5 13.25H4.16602C4.14403 13.2501 4.12297 13.2589 4.10742 13.2744C4.0919 13.29 4.08301 13.311 4.08301 13.333V15.833C4.08301 15.855 4.0919 15.876 4.10742 15.8916C4.12297 15.9072 4.14403 15.9159 4.16602 15.916H7.5C7.52198 15.9159 7.54304 15.9072 7.55859 15.8916C7.57412 15.876 7.58301 15.855 7.58301 15.833V13.333ZM15.916 10.833C15.916 10.8109 15.9072 10.79 15.8916 10.7744C15.876 10.7588 15.8551 10.75 15.833 10.75H12.5C12.4779 10.75 12.4561 10.7588 12.4404 10.7744C12.425 10.79 12.416 10.8111 12.416 10.833V15.833C12.416 15.855 12.425 15.876 12.4404 15.8916C12.4561 15.9072 12.4779 15.916 12.5 15.916H15.833C15.8551 15.916 15.876 15.9072 15.8916 15.8916C15.9072 15.876 15.916 15.8551 15.916 15.833V10.833ZM7.58301 4.16602C7.58292 4.14403 7.57415 4.12297 7.55859 4.10742C7.54304 4.09187 7.52198 4.08309 7.5 4.08301H4.16602C4.14403 4.08309 4.12297 4.09187 4.10742 4.10742C4.09187 4.12297 4.08309 4.14403 4.08301 4.16602V8.33301C4.08301 8.35503 4.0919 8.37599 4.10742 8.3916C4.12297 8.40715 4.14403 8.41593 4.16602 8.41602H7.5C7.52198 8.41593 7.54304 8.40715 7.55859 8.3916C7.57412 8.37599 7.58301 8.35503 7.58301 8.33301V4.16602ZM15.916 4.16602C15.9159 4.14403 15.9072 4.12297 15.8916 4.10742C15.876 4.0919 15.855 4.08301 15.833 4.08301H12.5C12.4779 4.08301 12.4561 4.09179 12.4404 4.10742C12.425 4.12296 12.4161 4.14411 12.416 4.16602V5.83301C12.416 5.85496 12.425 5.87601 12.4404 5.8916C12.4561 5.90723 12.4779 5.91602 12.5 5.91602H15.833C15.8551 5.91602 15.876 5.90723 15.8916 5.8916C15.9072 5.87597 15.916 5.85511 15.916 5.83301V4.16602ZM9.08301 15.833C9.08301 16.2529 8.91597 16.6552 8.61914 16.9521C8.32228 17.249 7.91981 17.4159 7.5 17.416H4.16602C3.74621 17.4159 3.34373 17.249 3.04688 16.9521C2.75004 16.6552 2.58301 16.2529 2.58301 15.833V13.333C2.58301 12.9132 2.75004 12.5108 3.04688 12.2139C3.34373 11.917 3.74621 11.7501 4.16602 11.75H7.5C7.91981 11.7501 8.32229 11.917 8.61914 12.2139C8.91597 12.5108 9.08301 12.9132 9.08301 13.333V15.833ZM17.416 15.833C17.416 16.2529 17.2491 16.6552 16.9521 16.9521C16.6552 17.2491 16.2529 17.416 15.833 17.416H12.5C12.0801 17.416 11.6768 17.2491 11.3799 16.9521C11.0832 16.6552 10.916 16.2528 10.916 15.833V10.833C10.916 10.4132 11.0832 10.0108 11.3799 9.71387C11.6768 9.41693 12.0801 9.25 12.5 9.25H15.833C16.2529 9.25 16.6552 9.41693 16.9521 9.71387C17.2491 10.0108 17.416 10.4131 17.416 10.833V15.833ZM9.08301 8.33301C9.08301 8.75286 8.91597 9.15523 8.61914 9.45215C8.32229 9.749 7.91981 9.91593 7.5 9.91602H4.16602C3.74621 9.91593 3.34373 9.749 3.04688 9.45215C2.75004 9.15523 2.58301 8.75286 2.58301 8.33301V4.16602C2.58309 3.74621 2.75002 3.34373 3.04688 3.04688C3.34373 2.75002 3.74621 2.58309 4.16602 2.58301H7.5C7.91981 2.58309 8.32229 2.75002 8.61914 3.04688C8.916 3.34373 9.08292 3.74621 9.08301 4.16602V8.33301ZM17.416 5.83301C17.416 6.25293 17.2491 6.65521 16.9521 6.95215C16.6552 7.24908 16.2529 7.41602 15.833 7.41602H12.5C12.0801 7.41602 11.6768 7.24908 11.3799 6.95215C11.0832 6.65525 10.916 6.25278 10.916 5.83301V4.16602C10.9161 3.74628 11.0831 3.34371 11.3799 3.04688C11.6768 2.74994 12.0801 2.58301 12.5 2.58301H15.833C16.2529 2.58301 16.6552 2.75004 16.9521 3.04688C17.249 3.34373 17.4159 3.74621 17.416 4.16602V5.83301Z" fill="#97A3B7"/>
</svg>
